<svg width="30" height="30" viewBox="0 0 30 30" fill="none" xmlns="http://www.w3.org/2000/svg">
<path fill-rule="evenodd" clip-rule="evenodd" d="M13.7658 7.67191C14.3304 8.49031 14.6145 9.46503 14.6145 10.6034C14.6145 11.7749 14.3304 12.7184 13.7587 13.4301C13.4355 13.8292 12.965 14.1952 12.3418 14.5244C13.2881 14.883 14.0001 15.4476 14.4848 16.22C14.966 16.9906 15.2057 17.9304 15.2057 19.0338C15.2057 20.1704 14.9323 21.1929 14.3801 22.0941C14.0303 22.6918 13.5917 23.1975 13.068 23.6058C12.4767 24.0748 11.7807 24.3948 10.9746 24.5695C10.1685 24.7442 9.29672 24.8288 8.35391 24.8288H0V5.625H8.95937C11.2214 5.66178 12.8212 6.34225 13.7658 7.67191ZM3.69667 8.96112V13.1984H8.20476C9.00731 13.1984 9.66248 13.0384 10.1667 12.7202C10.6657 12.4039 10.9196 11.8411 10.9196 11.0356C10.9196 10.14 10.5875 9.54963 9.92349 9.26089C9.34999 9.06227 8.62024 8.96112 7.73247 8.96112H3.69667ZM3.69667 16.3745V21.4945H8.19766C9.00198 21.4945 9.62875 21.3824 10.0762 21.158C10.8894 20.7387 11.2942 19.9405 11.2942 18.7616C11.2942 17.7593 10.9036 17.0752 10.1152 16.7C9.67313 16.4922 9.05525 16.3819 8.26158 16.3745H3.69667ZM26.4147 10.9179C27.3735 11.3611 28.1618 12.0618 28.7815 13.0182C29.3479 13.8623 29.7119 14.8407 29.877 15.9534C29.9729 16.6062 30.0137 17.546 29.996 18.7727H20.0085C20.0671 20.198 20.5412 21.1966 21.4432 21.7686C21.9918 22.1253 22.6505 22.3019 23.4211 22.3019C24.2343 22.3019 24.9002 22.0867 25.4097 21.6527C25.6903 21.4173 25.9353 21.0918 26.1484 20.6743H29.8077C29.7119 21.5166 29.268 22.3718 28.4796 23.2435C27.2527 24.6228 25.5322 25.3125 23.3235 25.3125C21.4982 25.3125 19.886 24.7313 18.4958 23.5654C17.0967 22.4012 16.4024 20.5051 16.4024 17.8826C16.4024 15.42 17.031 13.5349 18.288 12.22C19.5487 10.9106 21.1822 10.2522 23.1903 10.2522C24.3835 10.2522 25.4595 10.4729 26.4147 10.9179ZM21.0526 14.1253C20.5465 14.666 20.2269 15.3998 20.0973 16.323H26.2744C26.2105 15.3373 25.8891 14.5906 25.321 14.0793C24.7457 13.5699 24.0372 13.3143 23.1921 13.3143C22.2741 13.3143 21.5586 13.5846 21.0526 14.1253ZM19.1705 8.91146H27.1143V6.52248H19.1705V8.91146Z" fill="#B292FF"/>
</svg>
