<svg width="354" height="647" viewBox="0 0 354 647" fill="none" xmlns="http://www.w3.org/2000/svg">
<path fill-rule="evenodd" clip-rule="evenodd" d="M238.632 360.266C210.531 424.865 176.795 490.928 142.332 526.876C109.295 561.336 88.8294 547.559 68.6732 537.549C49.0782 527.817 30.2484 515.449 30.4422 471.305C30.6599 421.713 41.6922 356.362 69.7679 288.196C98.6547 218.061 139.089 155.139 176.038 117.807C210.412 83.0774 233.288 91.9993 254.945 101.102C276.659 110.229 301.21 117.748 297.981 169.061C294.685 221.411 267.438 294.044 238.632 360.266Z" fill="#DD3CAD"/>
<path fill-rule="evenodd" clip-rule="evenodd" d="M150.58 429.55C129.318 485.53 102.861 548.519 72.0253 580.959C41.3872 613.191 24.9463 589.556 3.85933 583.902C-19.2142 577.716 -56.9896 595.776 -54.5758 547.015C-52.1582 498.179 -14.0075 429.96 14.378 371.421C37.7953 323.127 63.3161 273.916 90.816 247.176C116.859 221.853 134.982 229.489 151.416 238.168C167.181 246.494 180.908 259.953 180.756 294.676C180.593 332.068 169.265 380.353 150.58 429.55Z" fill="#EF5281"/>
<path fill-rule="evenodd" clip-rule="evenodd" d="M147.803 324.816C121.539 382.199 92.3242 439.258 62.4452 473.464C33.4096 506.704 11.0791 509.708 -4.90582 499.639C-20.0364 490.107 -27.0002 463.44 -22.002 420.266C-17.0629 377.602 -0.748569 323.98 21.5702 270.941C44.3048 216.913 71.608 170.021 99.8432 130.707C134.596 82.317 173.588 25.9928 196.881 26.8394C221.673 27.7405 227.366 74.2539 217.364 134.978C208.119 191.109 177.251 260.475 147.803 324.816Z" fill="#7822F2"/>
</svg>
